PathFileType	3	(X/Y/Z)	D:\Vicon Database\Healthy Subjects\S0040\Jan. 30, 2020\Force Plate Walk 8.trc
DataRate	CameraRate	NumFrames	NumMarkers	Units	OrigDataRate	OrigDataStartFrame	OrigNumFrames
100.0	100.0	7	53	mm	100.0	547	319	
Frame#	Time	right_foot_cluster2			right_foot_cluster3			sternum_cluster1			sternum_cluster2			sternum_cluster3			left_asis			right_asis			left_psis			right_psis			sacrum_cluster1			sacrum_cluster2			sacrum_cluster3			left_lat_femoral_epicondyle			left_anterior_thigh15			left_anterior_thigh25			left_anterior_thigh50			left_lateral_thigh25			left_lateral_thigh50			left_thigh_cluster1			left_thigh_cluster2			left_thigh_cluster3			left_fibular_head			left_tibial_tuberosity			left_anterior_shank30			left_lateral_malleolus			left_shank_cluster1			left_shank_cluster2			left_shank_cluster3			left_heel			left_metatarsal2			left_foot_cluster1			left_foot_cluster2			left_foot_cluster3			right_lat_femoral_epicondyle			right_anterior_thigh15			right_anterior_thigh25			right_anterior_thigh50			right_lateral_thigh25			right_lateral_thigh50			right_thigh_cluster1			right_thigh_cluster2			right_thigh_cluster3			right_fibular_head			right_tibial_tuberosity			right_lateral_distal_shank			right_anterior_shank30			right_lateral_malleolus			right_shank_cluster1			right_shank_cluster2			right_shank_cluster3			right_heel			right_metatarsal2			right_foot_cluster1			
		X1	Y1	Z1	X2	Y2	Z2	X3	Y3	Z3	X4	Y4	Z4	X5	Y5	Z5	X6	Y6	Z6	X7	Y7	Z7	X8	Y8	Z8	X9	Y9	Z9	X10	Y10	Z10	X11	Y11	Z11	X12	Y12	Z12	X13	Y13	Z13	X14	Y14	Z14	X15	Y15	Z15	X16	Y16	Z16	X17	Y17	Z17	X18	Y18	Z18	X19	Y19	Z19	X20	Y20	Z20	X21	Y21	Z21	X22	Y22	Z22	X23	Y23	Z23	X24	Y24	Z24	X25	Y25	Z25	X26	Y26	Z26	X27	Y27	Z27	X28	Y28	Z28	X29	Y29	Z29	X30	Y30	Z30	X31	Y31	Z31	X32	Y32	Z32	X33	Y33	Z33	X34	Y34	Z34	X35	Y35	Z35	X36	Y36	Z36	X37	Y37	Z37	X38	Y38	Z38	X39	Y39	Z39	X40	Y40	Z40	X41	Y41	Z41	X42	Y42	Z42	X43	Y43	Z43	X44	Y44	Z44	X45	Y45	Z45	X46	Y46	Z46	X47	Y47	Z47	X48	Y48	Z48	X49	Y49	Z49	X50	Y50	Z50	X51	Y51	Z51	X52	Y52	Z52	X53	Y53	Z53	
547	5.46	-655.96783	185.3233	-195.71849	-654.88025	185.10699	-233.06929	-288.84875	1432.4838	-113.78609	-301.20453	1404.9235	-106.36213	-297.4375	1408.4535	-143.90038	-280.07736	1051.3513	4.5622749	-281.94647	1064.8663	-245.24385	-114.68369	1070.6733	-52.472847	-112.49092	1070.7928	-170.15086	-102.49216	1126.2727	-117.52371	-97.573784	1101.1001	-129.35315	-95.781471	1095.5577	-90.000504	-90.193077	548.90698	4.5399771	-211.78801	598.61523	-33.753807	-253.35371	674.75671	-13.369726	-290.04453	811.25848	12.85416	-133.84453	695.66632	31.383385	-180.34824	834.25568	62.989765	-162.61562	790.74817	66.39872	-153.35516	763.46906	62.614841	-190.21407	763.27917	70.289963	-69.266121	469.07895	8.1113873	-121.38721	444.09271	-43.669563	-26.536901	211.8356	-67.011421	58.933784	116.32989	-48.73064	-108.20354	392.9863	-73.735954	-102.13274	365.08054	-66.709297	-92.165443	370.45956	-102.35994	139.50453	93.784744	-85.911819	-76.429527	56.938503	-78.963814	-25.858706	115.09711	-73.429733	-46.034336	94.615776	-63.239254	-52.53706	100.24626	-100.5395	-389.92636	537.41882	-258.34592	-435.06424	643.35565	-206.83914	-419.30914	720.18732	-204.17334	-373.03381	839.08765	-210.32065	-327.89133	682.1261	-292.28159	-278.15109	823.33344	-315.43881	-288.76038	770.38184	-322.60156	-308.26614	748.948	-320.18774	-272.02399	735.37396	-312.04895	-408.4599	475.71994	-260.39542	-465.51566	488.40057	-216.55418	-508.71802	224.23576	-252.07869	-545.82336	256.52643	-207.65228	-559.46661	123.28923	-237.70251	-481.65894	426.52518	-164.35628	-488.74255	399.28662	-157.04399	-509.93771	407.68979	-186.76044	-514.00403	55.553364	-198.87947	-698.44037	172.06985	-204.17497	-628.24829	185.85062	-204.69588
548	5.47	-679.27252	189.25243	-193.58223	-678.55292	189.12729	-230.92566	-303.7691	1429.6129	-113.65521	-316.07928	1402.0653	-106.22264	-312.31659	1405.5753	-143.7383	-294.52365	1048.9232	4.8278856	-297.31021	1062.2798	-245.2347	-129.27141	1068.2363	-52.998127	-127.56662	1068.1833	-170.97136	-116.66946	1123.7384	-118.39098	-112.6002	1098.1373	-130.16119	-110.62843	1092.5966	-90.68853	-101.14951	548.02393	4.5221286	-224.26492	596.68616	-32.513065	-265.94669	672.35846	-12.618012	-303.49194	808.66992	13.515476	-146.07858	694.40851	31.291716	-193.38799	832.41388	62.866287	-175.99045	789.3584	66.720665	-165.72249	761.91016	62.470123	-202.76074	761.4397	70.371948	-79.025009	468.67307	8.3022957	-130.76878	442.43472	-43.404469	-30.816006	212.23024	-66.676826	56.59124	118.61974	-48.599411	-116.78349	391.55612	-73.209099	-110.95551	364.04025	-65.468063	-100.32285	369.31256	-102.08018	137.50601	97.542755	-85.948517	-77.40329	56.380779	-78.696007	-28.129232	115.47276	-72.984848	-47.682919	94.294395	-62.864155	-54.538319	100.23101	-100.03316	-405.37628	534.50696	-257.45453	-450.65808	642.35529	-204.34703	-434.71689	718.52551	-203.18365	-388.5733	837.13757	-210.27464	-344.56152	679.612	-290.62134	-293.80939	820.39075	-315.599	-305.23865	766.87189	-322.36865	-324.64267	745.71674	-319.26895	-288.53131	731.98285	-311.21899	-424.05276	473.16818	-259.51782	-481.29568	487.49792	-215.91785	-530.7738	224.39755	-250.93407	-567.1604	257.85141	-206.73169	-586.78253	126.06367	-237.99675	-499.0614	426.38889	-163.64522	-506.82187	399.33466	-156.3499	-527.82605	408.2662	-186.01614	-541.86584	55.553146	-197.83807	-722.15265	177.13235	-201.71332	-651.64148	189.11659	-202.7832
549	5.48	-699.37512	191.08134	-192.23061	-698.74261	190.54443	-229.58122	-318.71524	1426.8137	-113.62238	-331.01208	1399.2487	-106.19	-327.24081	1402.7339	-143.73076	-309.20132	1046.6174	4.9893341	-312.66928	1059.9421	-245.32811	-144.08206	1065.7532	-53.655231	-142.46526	1065.6755	-171.26677	-131.3925	1120.912	-119.39978	-127.16739	1095.6141	-130.91811	-125.42562	1089.9451	-91.249168	-113.22005	547.09357	4.7162828	-237.6272	594.68805	-31.442728	-279.00052	670.04071	-11.720681	-317.39786	806.2428	14.179289	-158.93478	692.93726	31.18663	-206.94688	830.5575	62.648365	-189.05641	787.4845	66.397018	-179.10843	760.29968	62.536545	-215.903	759.61218	70.43689	-89.810196	467.99475	8.5325642	-141.08386	440.54807	-43.058632	-35.966015	212.76332	-66.345367	54.034103	121.01814	-48.316002	-126.05981	389.9227	-72.879715	-119.5256	362.55707	-65.06514	-109.16416	367.98068	-101.79185	135.25955	101.84081	-85.856377	-78.622002	55.89304	-78.370003	-30.552254	115.71914	-72.304077	-49.781807	94.229546	-62.345112	-56.791073	100.23029	-99.530693	-421.66397	532.43359	-256.46005	-467.39789	641.75146	-201.75429	-451.85046	718.38232	-202.14337	-404.8576	836.49329	-210.29465	-362.1293	678.26019	-288.72748	-310.56842	818.1474	-315.21298	-320.67529	764.67792	-320.25934	-341.57068	743.76257	-317.75131	-305.5903	729.79962	-309.72656	-439.95053	470.91965	-258.79465	-497.71277	486.39102	-215.56567	-550.54663	223.8069	-249.3979	-586.50336	257.97342	-205.36378	-605.97327	124.9476	-234.38646	-516.30164	425.69678	-162.71608	-524.41248	398.79077	-155.32802	-545.36902	407.94495	-184.98608	-563.49402	55.12989	-196.02144	-742.49713	179.66811	-200.19304	-671.75311	190.32138	-201.50664
550	5.49	-716.30365	190.53012	-191.41469	-715.58569	189.26753	-228.76251	-333.70102	1424.1301	-113.71277	-346.01505	1396.5822	-106.27235	-342.24329	1400.0521	-143.80725	-324.11926	1044.3845	5.0720253	-328.09979	1057.8905	-245.51976	-158.10199	1063.1647	-54.2505	-157.76697	1062.9536	-171.63225	-146.29947	1118.6345	-119.48174	-141.8295	1093.1748	-131.21437	-140.37694	1087.4214	-91.570869	-126.33328	545.79639	4.9195876				-292.92474	667.75818	-10.850912	-331.8219	804.01923	14.778723	-172.57655	691.25519	31.223476	-221.15994	828.95789	62.340305	-202.79706	785.68085	66.43605	-193.05666	758.63287	62.540524	-229.69342	757.74237	70.560249	-101.72376	467.13852	8.9423933	-152.3887	438.47714	-42.682705	-41.587719	213.35997	-65.903435	50.890759	123.76334	-47.716476	-135.9922	388.07523	-72.571373	-128.4429	360.75177	-64.459503	-118.77924	366.61435	-101.55048	132.6156	106.75786	-85.253784	-80.160561	55.420551	-78.210808	-33.758511	116.48907	-72.022629	-52.214802	94.09832	-62.121902	-59.383163	100.19791	-99.268707	-438.6326	531.40741	-255.51208	-484.93787	641.08057	-199.53943	-469.8649	718.75452	-201.08498	-421.98138	836.54407	-210.38687	-379.52396	677.36371	-287.00003	-328.37946	816.66644	-314.86172	-338.12006	763.69379	-318.87378	-359.25446	742.88531	-316.32297	-323.28311	728.76801	-308.51843	-457.03372	469.32629	-257.99402	-514.77112	485.27853	-214.92433	-567.92731	222.14032	-247.48752	-603.93353	256.59378	-203.63905	-623.75403	123.30171	-232.35161	-533.56915	424.46127	-161.73676	-541.79156	397.65073	-154.1264	-562.68622	406.65363	-183.89557	-582.29462	53.428833	-191.95709	-759.50964	179.3481	-199.24016	-688.66742	189.33452	-200.61432
551	5.5	-730.27637	187.48953	-190.36516	-729.45728	185.60326	-227.6716	-348.71887	1421.6547	-113.91898	-361.06586	1394.1156	-106.46124	-357.26147	1397.5874	-143.9823	-339.32178	1042.2657	5.1606574	-343.62112	1056.1709	-245.73444	-173.24998	1061.1931	-54.695377	-173.25755	1060.3108	-171.97401	-161.35948	1116.0945	-120.02872	-156.59006	1090.2709	-131.47574	-155.65378	1084.6116	-91.885551	-140.37602	544.13336	5.1806579				-307.56693	665.56647	-9.9010763	-346.74332	802.00134	15.267081	-187.02458	689.45062	31.328499	-235.59293	826.96069	61.956402	-217.85547	784.26825	66.454521	-207.26518	756.7807	62.163464	-244.14168	756.10211	70.795761	-114.79446	466.06097	9.4512444	-164.65672	436.24551	-42.30595	-47.209812	214.07805	-65.665199	47.216774	127.04285	-46.537979	-146.78441	386.16431	-72.2341	-138.76576	359.11224	-64.230415	-129.07898	365.17929	-101.29868	129.42662	112.27353	-84.820755	-81.719444	54.657341	-77.917885	-37.057846	116.8418	-71.31707	-54.859711	93.895485	-61.669292	-62.352581	100.16067	-98.686844	-456.83667	531.39899	-254.87697	-502.97971	640.56702	-198.11888	-488.12045	718.87555	-200.17856	-439.94839	836.99554	-210.49382	-397.36508	676.80066	-285.74274	-346.36926	815.68793	-314.34644	-356.28271	763.18628	-317.92349	-376.43076	742.2146	-314.51999	-341.53891	728.17603	-307.85428	-474.99829	468.10425	-257.08218	-532.4295	483.91269	-213.94328	-583.2309	219.50804	-245.54794	-619.46069	253.7036	-201.66002	-638.03339	120.09509	-230.2872	-550.729	422.50952	-160.61887	-558.71619	395.69861	-152.88115	-579.62799	404.31067	-182.75691	-595.19287	50.570919	-188.7337	-773.48969	176.15219	-198.13654	-702.58032	186.09145	-199.383
552	5.51	-741.67218	182.16739	-188.42145	-740.78241	180.12842	-225.73325	-363.74228	1419.426	-114.20107	-376.10507	1391.8955	-106.74953	-372.32999	1395.3599	-144.26271	-354.80292	1040.2274	5.1721578	-359.37039	1054.7278	-245.97775	-188.85115	1058.7369	-54.586437	-189.00914	1057.4938	-172.17087	-176.75542	1113.3728	-120.04575	-172.15878	1087.3978	-131.36179	-169.97479	1082.3767	-92.426132	-155.50214	542.31396	5.6247416				-322.94	663.52386	-8.9652128	-362.0542	800.09515	15.72367	-202.064	687.57312	31.306068	-250.63643	825.14783	61.644886	-232.49059	782.41583	65.734612	-222.06935	755.14954	61.743973	-259.10925	754.40588	70.864311	-128.88293	464.88266	10.10533	-177.88942	434.24738	-41.880302	-53.950691	215.09895	-65.198433	42.884262	130.48918	-45.770985	-158.36536	384.19757	-71.786942	-149.97287	357.52628	-63.975578	-140.27391	363.79318	-100.96018	126.06136	119.92311	-83.448753	-83.056625	53.404919	-77.801971	-41.101376	117.43806	-70.711067	-58.207691	93.879807	-60.999447	-65.810608	100.06346	-98.087769	-475.84607	531.30994	-254.1925	-521.25922	640.42169	-197.72249	-506.39456	718.73016	-199.69302	-458.47186	837.49207	-210.50171	-415.82236	676.60095	-285.2301	-364.27722	814.94818	-313.78247	-374.83694	762.64728	-317.5784	-394.96545	741.8045	-313.95682	-360.21097	727.58636	-307.59213	-493.46423	466.92957	-256.16995	-550.51776	482.19254	-212.75729	-596.36084	216.05289	-243.68306	-633.07886	249.56273	-199.59929	-648.91443	115.65669	-228.09451	-567.70862	419.91721	-159.40273	-575.14429	393.10153	-151.45082	-596.04724	400.91641	-181.5558	-605.7851	46.72924	-185.8297	-784.78931	170.35858	-196.23979	-713.94897	181.03903	-197.39998
553	5.52	-750.79761	175.13429	-185.62646	-749.89496	173.28856	-222.95174	-378.7103	1417.4725	-114.57885	-391.15671	1389.9835	-107.11877	-387.38333	1393.4368	-144.64838	-370.59668	1038.3403	5.1440372	-375.57233	1053.5116	-246.24469	-205.00803	1056.2306	-55.194458	-205.12994	1055.1223	-172.41751	-192.48921	1110.8375	-120.23534	-188.08644	1085.2933	-132.01155	-185.62982	1080.224	-92.856422	-171.64999	540.47949	6.3986521				-339.01303	661.56952	-8.0693512	-377.76718	798.34253	16.152775	-217.83572	685.76141	31.267937	-266.19226	823.46405	61.353725	-248.1873	780.98297	65.743835	-237.45979	753.53558	61.42791	-274.36612	752.75085	70.620567	-143.95572	463.59006	10.97271	-192.95735	432.20502	-40.496952	-61.18111	216.34657	-64.5028	37.723335	134.39592	-44.853233	-170.79912	382.23166	-71.167252	-161.71231	355.74536	-63.21756	-150.78969	362.30612	-99.627159	121.10623	126.904	-82.845619	-84.969063	52.369816	-77.525543	-45.921383	118.17584	-69.820595	-61.822968	93.626778	-60.482445	-69.775307	99.842613	-97.414642	-495.33127	530.67639	-253.60257	-539.56323	640.83459	-198.04262	-524.63501	718.72845	-199.63536	-476.71246	837.59668	-210.33255	-434.76199	676.39941	-285.04425	-382.13055	814.29993	-313.40649	-393.45566	761.9729	-317.65033	-414.90521	741.48401	-314.85043	-379.0845	726.72961	-307.564	-511.97964	465.60849	-255.48016	-568.80585	479.89993	-211.68922	-607.49622	211.96552	-242.02065	-644.83185	244.45705	-197.64125	-656.7395	110.41902	-225.78458	-584.25623	416.74005	-158.22205	-590.94678	389.77225	-150.12206	-612.0235	396.84155	-180.26935	-609.8584	44.534081	-182.89967	-793.58832	163.07411	-193.50453	-723.20807	174.58221	-194.66394
